<svg width="52" height="54" viewBox="0 0 52 54" fill="none" xmlns="http://www.w3.org/2000/svg">
<path d="M16.4963 22.1574V21.7512C16.4963 20.7214 17.3211 19.8673 18.384 19.7964L26.1267 19.2794L36.8342 35.047V21.2083L34.0781 20.8409V20.6479C34.0781 19.6061 34.9218 18.7464 35.9983 18.6912L43.0433 18.3303V19.3442C43.0433 19.8201 42.6894 20.2272 42.2043 20.3092L40.509 20.596V43.0074L38.3813 43.7391C36.6038 44.3504 34.6249 43.696 33.6073 42.1605L23.2122 26.4744V41.4459L26.4118 42.0583L26.3672 42.355C26.2276 43.2847 25.425 43.9877 24.4541 44.0309L16.4963 44.3851C16.3911 43.3855 17.1403 42.4911 18.1739 42.3825L19.2207 42.2726V22.3105L16.4963 22.1574Z" fill="black"/>
<path fill-rule="evenodd" clip-rule="evenodd" d="M35.3499 0.933565L3.44706 3.1117C1.5361 3.24217 0.0548096 4.77849 0.0548096 6.62998V37.6598C0.0548096 39.3994 0.65365 41.0896 1.75699 42.4641L8.63571 51.0334C9.74788 52.4189 11.4981 53.1818 13.3088 53.0703L48.7174 50.8907C50.5322 50.779 51.945 49.3239 51.945 47.5663V12.2885C51.945 11.2012 51.3959 10.1823 50.474 9.55901L39.265 1.98059C38.1227 1.20825 36.7405 0.83862 35.3499 0.933565ZM5.02906 7.11399C4.58535 6.78548 4.79651 6.10109 5.35393 6.06111L35.5645 3.89422C36.5271 3.82518 37.4835 4.09024 38.262 4.64176L44.3235 8.93625C44.5536 9.0993 44.4457 9.45127 44.1608 9.46676L12.1679 11.2067C11.1997 11.2594 10.244 10.9749 9.47415 10.405L5.02906 7.11399ZM10.6673 16.6614C10.6673 15.6221 11.5069 14.7635 12.5807 14.7051L46.4062 12.8629C47.4527 12.8059 48.3336 13.6107 48.3336 14.6236V45.1705C48.3336 46.208 47.4969 47.0656 46.4253 47.1266L12.8139 49.0391C11.6493 49.1053 10.6673 48.2104 10.6673 47.083V16.6614Z" fill="black"/>
</svg>
